<?xml version="1.0" standalone="no"?>
<!DOCTYPE svg PUBLIC "-//W3C//DTD SVG 20010904//EN"
 "http://www.w3.org/TR/2001/REC-SVG-20010904/DTD/svg10.dtd">
<svg version="1.0" xmlns="http://www.w3.org/2000/svg"
 width="256.000000pt" height="256.000000pt" viewBox="0 0 256.000000 256.000000"
 preserveAspectRatio="xMidYMid meet">
<metadata>
Created by potrace 1.11, written by Peter Selinger 2001-2013
</metadata>
<g transform="translate(0.000000,256.000000) scale(0.100000,-0.100000)"
fill="#000000" stroke="none">
<path d="M56 2503 c15 -32 32 -74 39 -93 11 -30 18 -35 49 -38 32 -3 36 0 37
20 l0 23 9 -22 c9 -21 11 -21 37 -8 l28 15 7 -39 c3 -21 8 -68 11 -105 2 -36
6 -67 8 -67 2 0 16 2 30 6 22 6 26 11 23 38 l-4 32 21 -32 c28 -43 40 -42 26
3 -7 23 -20 39 -35 45 -20 8 -23 15 -20 51 4 51 25 61 41 19 6 -17 15 -31 18
-31 4 0 10 -13 14 -30 4 -16 20 -39 36 -51 16 -11 29 -29 29 -39 0 -17 -4 -18
-25 -10 -22 8 -27 7 -34 -12 -5 -14 -4 -30 2 -40 17 -26 -19 -128 -45 -128 -5
0 -8 10 -6 23 3 20 -1 22 -38 23 -55 1 -74 10 -74 33 0 19 -35 61 -51 61 -4 0
-5 -9 -2 -21 3 -12 11 -18 19 -15 9 3 14 -1 14 -12 0 -24 -16 -46 -28 -38 -14
9 -20 -13 -14 -51 4 -28 1 -34 -22 -43 -30 -11 -36 -24 -6 -15 16 5 20 2 20
-18 0 -13 -9 -32 -20 -42 -20 -18 -29 -62 -10 -50 23 14 9 -56 -15 -79 -14
-13 -25 -31 -25 -40 0 -9 -8 -16 -19 -16 -10 0 -21 -7 -25 -15 -9 -25 -26 -17
-26 13 0 30 -15 59 -23 45 -8 -14 4 -93 15 -93 5 0 6 -5 3 -10 -4 -6 -11 -8
-16 -5 -5 4 -9 -29 -9 -79 0 -96 -1 -95 72 -46 26 17 38 33 39 50 1 17 3 19 6
8 3 -11 14 -18 29 -18 17 0 24 -5 24 -20 0 -11 5 -20 10 -20 6 0 10 7 10 16 0
8 4 12 10 9 6 -4 9 26 8 82 -1 72 4 102 25 164 15 41 27 96 27 121 0 24 3 48
7 52 4 4 9 19 11 34 5 41 18 47 37 18 10 -15 15 -29 12 -33 -4 -3 0 -15 8 -27
8 -11 15 -32 15 -46 0 -14 4 -31 9 -39 6 -8 6 -24 0 -38 -10 -27 -2 -53 17
-53 16 0 18 -12 5 -26 -6 -5 -11 -34 -13 -64 -2 -36 -7 -54 -15 -53 -17 4 -1
-38 20 -51 22 -14 34 1 19 24 -14 23 -16 76 -3 84 11 7 23 -37 15 -58 -3 -9
-1 -16 6 -16 7 0 9 -8 5 -21 -4 -12 -2 -24 4 -28 8 -5 7 -16 -2 -40 -11 -29
-10 -34 6 -46 13 -10 17 -20 12 -36 -5 -14 -4 -19 4 -15 6 4 11 0 11 -11 0
-12 5 -9 16 12 25 49 32 50 45 4 7 -24 16 -48 21 -54 4 -5 8 -26 8 -47 0 -34
-3 -38 -25 -38 -14 0 -25 -3 -25 -8 0 -16 -53 -63 -66 -58 -9 3 -14 -2 -14
-14 0 -26 -14 -25 -34 2 -16 23 -16 23 -10 -12 6 -35 6 -35 -11 -12 -9 12 -13
26 -10 32 3 5 0 7 -9 4 -8 -3 -17 -12 -20 -21 -4 -10 -14 -13 -31 -9 -18 5
-25 2 -25 -8 0 -17 -22 -26 -66 -26 -24 0 -34 5 -34 15 0 8 -4 15 -10 15 -5 0
-6 -7 -3 -17 4 -9 2 -14 -3 -11 -5 2 -27 13 -49 23 -35 16 -37 19 -20 26 22 8
12 12 -24 9 -18 -1 -22 2 -18 14 4 9 2 16 -3 16 -6 0 -9 3 -9 8 3 18 -2 32
-11 32 -6 0 -10 -29 -10 -68 l0 -68 64 -22 c35 -12 77 -22 94 -22 17 0 34 -4
37 -10 3 -5 19 -10 36 -10 27 0 29 2 24 30 -7 39 15 40 44 4 12 -15 21 -22 21
-15 0 6 5 11 11 11 5 0 8 -4 4 -9 -3 -6 4 -15 15 -21 25 -13 43 -2 101 63 22
26 47 47 54 47 7 0 15 6 18 14 4 10 18 13 44 10 21 -2 65 -4 98 -5 33 -1 65
-6 70 -10 6 -5 32 -10 58 -12 26 -2 50 -7 54 -11 12 -12 33 -6 33 9 0 17 16
20 25 5 3 -5 10 -10 16 -10 11 0 12 29 2 31 -50 7 -73 7 -73 -1 0 -6 -7 -10
-15 -10 -8 0 -15 5 -15 10 0 6 -7 10 -15 10 -8 0 -15 8 -15 17 0 15 -2 14 -14
-3 -8 -10 -18 -16 -22 -11 -11 10 -13 47 -3 47 5 0 6 6 3 14 -3 8 0 17 6 21 8
5 8 10 0 20 -13 15 35 95 57 95 11 0 12 9 7 37 l-7 36 28 -25 c16 -16 35 -24
46 -21 16 5 19 0 19 -28 0 -30 -1 -31 -14 -14 -12 16 -16 17 -30 6 -22 -18
-20 -30 4 -24 17 4 20 0 20 -25 0 -40 36 -52 52 -17 9 19 6 32 -10 66 -21 42
-21 43 -2 61 10 10 26 18 34 18 8 0 18 5 21 10 3 6 17 10 30 10 22 0 24 -4 30
-85 6 -68 4 -90 -8 -108 -14 -21 -13 -24 10 -45 29 -26 36 -23 37 15 1 24 6
29 39 34 26 4 37 2 37 -6 0 -7 11 -16 24 -19 34 -8 39 -32 12 -61 -15 -16 -26
-21 -28 -14 -5 14 -28 4 -28 -12 0 -16 80 -11 87 7 4 11 13 14 30 10 17 -5 30
0 49 19 14 14 29 25 35 25 6 0 7 5 4 10 -3 6 -16 8 -28 5 -16 -4 -34 4 -62 28
-40 35 -40 35 -21 56 19 21 46 28 46 12 0 -4 11 -6 25 -3 34 6 67 -24 63 -57
-4 -31 13 -37 30 -11 10 16 10 24 0 40 -18 29 1 39 23 11 17 -20 21 -22 37
-10 9 7 18 14 20 15 2 1 -1 11 -7 22 -9 16 -7 21 10 25 27 7 68 -8 75 -28 4
-8 12 -15 19 -15 24 0 26 -19 5 -40 -11 -11 -20 -33 -20 -50 0 -27 -3 -30 -33
-30 -27 0 -36 6 -46 26 -9 21 -14 24 -26 14 -11 -9 -15 -9 -15 -1 0 20 -32 12
-37 -10 -4 -13 -11 -18 -22 -14 -8 3 -12 3 -8 -1 4 -4 -2 -13 -13 -21 -31 -22
-25 -36 13 -29 17 3 55 2 82 -3 48 -7 49 -8 20 -16 -16 -4 -38 -15 -48 -23
-11 -10 -33 -15 -60 -13 -33 1 -48 -3 -62 -19 -22 -25 -91 -29 -81 -5 3 8 2
14 -2 13 -4 -1 -19 2 -35 7 -22 6 -36 2 -68 -19 -22 -15 -45 -26 -52 -25 -27
3 -38 -2 -72 -37 -35 -34 -36 -37 -20 -60 9 -14 11 -24 5 -24 -6 0 -8 -4 -5
-10 3 -5 -1 -10 -9 -10 -9 0 -16 -9 -16 -20 0 -11 6 -20 14 -20 7 0 20 -8 27
-17 12 -14 12 -16 -1 -11 -65 27 -71 33 -67 63 5 33 -6 53 -42 73 -22 13 -23
12 -18 -8 9 -36 -61 -48 -100 -17 -23 17 -15 -21 8 -42 12 -11 18 -24 14 -30
-3 -7 2 -11 14 -11 11 0 23 5 26 10 4 6 16 8 27 4 12 -3 24 -1 28 6 4 7 13 11
20 8 9 -3 8 -8 -4 -20 -9 -9 -16 -21 -16 -26 0 -12 -72 -42 -99 -42 -11 0 -27
7 -35 16 -9 8 -16 13 -16 9 0 -3 -9 -1 -20 5 -25 13 -27 -2 -5 -44 18 -35 18
-36 1 -36 -8 0 -17 8 -21 19 -3 10 -21 35 -40 54 -19 20 -35 45 -35 56 0 29
-39 91 -54 85 -13 -5 -17 -18 -18 -67 -1 -18 -5 -26 -14 -23 -23 9 -24 -24 -1
-50 12 -14 25 -41 28 -59 5 -30 3 -35 -23 -46 -24 -10 -28 -17 -28 -50 0 -29
-4 -39 -16 -39 -8 0 -12 5 -9 10 3 6 0 13 -9 16 -18 7 -52 -26 -48 -47 1 -9
-4 -22 -13 -29 -17 -14 -21 -35 -5 -25 7 4 9 -2 4 -19 -4 -16 -2 -26 5 -26 6
0 11 -9 11 -20 0 -11 -6 -20 -13 -20 -15 0 -39 88 -26 96 13 8 -13 54 -30 54
-9 0 -24 -14 -33 -30 -13 -23 -24 -30 -48 -30 -26 0 -31 -4 -37 -31 -4 -19
-14 -34 -25 -37 -12 -3 -17 -10 -13 -22 4 -11 -1 -20 -12 -24 -10 -3 -32 -16
-49 -28 -18 -13 -39 -27 -49 -33 -10 -6 -17 -24 -18 -45 -2 -28 2 -35 16 -34
9 1 17 -4 17 -12 0 -8 -10 -14 -24 -14 -14 0 -36 -4 -50 -10 -25 -9 -26 -12
-26 -105 0 -102 8 -116 45 -75 15 17 16 23 5 33 -10 10 -12 9 -7 -6 6 -15 4
-16 -13 -7 -25 13 -25 22 -2 43 21 20 53 24 35 6 -14 -14 11 -44 30 -36 16 6
32 -17 52 -75 18 -53 19 -61 3 -52 -10 6 -10 4 -1 -7 7 -7 13 -28 13 -46 0
-18 5 -33 10 -33 6 0 10 23 10 50 0 57 17 66 44 25 22 -34 20 -44 -12 -57 -27
-12 -27 -12 16 -16 23 -2 60 -2 82 0 39 3 39 4 27 28 -9 19 -22 26 -50 28 -20
2 -37 8 -37 13 0 6 5 7 11 3 7 -4 9 2 7 17 -2 19 -14 27 -50 39 -58 19 -76 36
-28 26 78 -16 95 -16 114 -1 17 13 18 18 7 39 -8 14 -10 36 -6 54 3 17 2 39
-4 50 -7 14 -6 24 4 38 8 11 15 29 15 42 0 17 5 23 18 20 12 -2 17 -13 18 -41
0 -24 8 -45 24 -61 14 -16 21 -32 17 -46 -7 -27 19 -27 33 1 6 11 17 18 23 16
7 -2 20 2 29 10 9 9 38 18 63 20 46 6 57 16 28 27 -13 6 -10 11 20 32 20 13
37 30 38 37 3 74 8 99 22 115 9 10 17 23 17 29 0 6 9 13 20 16 16 4 20 0 20
-19 0 -13 -5 -24 -11 -24 -16 0 -4 -103 15 -133 7 -12 17 -42 20 -66 8 -55 14
-65 31 -51 11 9 17 4 31 -21 9 -18 23 -39 30 -47 8 -7 14 -22 14 -33 0 -23
-13 -41 -94 -128 l-30 -31 397 0 397 0 -22 35 c-13 19 -28 35 -35 35 -7 0 -25
11 -40 25 l-28 25 35 -6 c74 -11 80 -14 80 -35 0 -12 9 -34 21 -50 19 -27 25
-29 87 -29 64 1 66 1 47 18 -11 9 -30 30 -43 46 -22 29 -22 29 -3 50 11 12 21
32 23 45 4 34 30 48 65 35 18 -6 27 -16 25 -27 -2 -9 2 -17 8 -17 6 0 10 8 9
17 -3 30 0 37 25 65 27 33 33 34 58 11 16 -14 18 -14 18 0 0 8 -5 17 -12 19
-12 4 -3 28 11 28 18 0 76 -66 73 -82 -3 -19 13 -25 23 -8 18 28 75 -61 75
-117 0 -25 -20 -13 -34 22 -8 19 -20 35 -25 35 -16 0 -13 -16 9 -60 11 -22 20
-48 20 -60 0 -20 5 -20 290 -20 l290 0 0 35 c0 25 -4 35 -16 35 -8 0 -12 5 -9
10 4 6 11 8 16 5 5 -4 9 99 9 262 -1 238 -2 265 -15 238 -17 -37 -34 -56 -63
-73 -20 -11 -22 -10 -23 10 0 13 -1 51 -2 86 -1 34 -1 62 1 62 1 0 6 -10 11
-22 8 -22 9 -21 50 18 l41 41 0 215 c0 173 -3 218 -14 227 -9 7 -40 11 -78 9
l-63 -3 0 29 0 30 65 -2 c36 -2 72 3 80 9 11 8 4 9 -31 5 -32 -4 -52 -1 -65 9
-18 13 -17 14 12 15 60 0 94 12 94 31 0 17 -2 17 -35 3 -40 -16 -85 -19 -85
-3 0 5 -4 7 -10 4 -20 -13 -11 78 11 101 18 19 19 23 5 37 -45 44 5 26 67 -25
37 -31 47 -36 47 -21 0 10 -18 31 -40 47 -44 33 -47 38 -26 55 11 10 16 8 20
-7 4 -11 15 -27 26 -37 20 -18 20 -16 20 368 0 213 -2 387 -4 387 -3 0 -59
-37 -125 -81 -98 -66 -121 -86 -121 -105 0 -25 -15 -33 -23 -11 -4 10 -6 10
-6 0 -3 -39 -69 21 -75 67 -3 19 -13 67 -24 106 -18 68 -18 72 -1 82 13 8 19
8 22 -1 2 -7 11 -3 22 11 11 12 25 22 32 22 15 0 17 38 3 60 -8 13 -11 11 -16
-7 l-6 -23 -20 25 c-11 14 -25 25 -33 25 -7 0 -16 10 -20 23 -6 20 -8 20 -12
3 -4 -14 -11 -17 -35 -12 -16 3 -36 13 -44 21 -24 23 -40 18 -42 -15 -2 -25 1
-30 20 -31 13 0 17 -3 10 -6 -18 -7 -4 -23 16 -17 16 5 16 5 0 -6 -10 -6 -18
-20 -18 -32 0 -17 -2 -18 -15 -8 -8 7 -15 8 -15 2 0 -5 7 -15 15 -22 8 -7 15
-20 16 -29 0 -10 2 -11 6 -3 2 6 12 12 20 12 9 0 13 -6 9 -15 -3 -8 -1 -15 4
-15 6 0 10 -4 10 -10 0 -5 -7 -10 -15 -10 -9 0 -15 -9 -15 -22 -1 -20 -2 -21
-11 -6 -5 9 -15 15 -23 12 -8 -3 -17 10 -26 36 -12 36 -24 46 -52 41 -13 -2
-38 57 -48 112 -7 34 -7 64 0 87 9 31 8 37 -12 53 -22 19 -22 19 -3 33 17 13
22 11 47 -13 15 -15 28 -22 28 -17 0 19 -50 54 -78 54 -17 -1 -39 -13 -61 -35
-33 -33 -35 -39 -34 -100 0 -36 6 -71 12 -79 12 -14 57 -11 67 5 3 5 10 9 16
9 6 0 5 -6 -3 -16 -7 -9 -12 -34 -10 -58 3 -53 -11 -66 -78 -69 -37 -1 -54 2
-61 13 -15 24 -12 27 25 34 19 4 36 10 39 14 3 5 -13 30 -34 57 -39 50 -40 50
-33 118 5 55 3 67 -9 67 -36 0 -51 -53 -22 -75 14 -9 15 -17 7 -41 l-11 -29
-15 34 -15 34 -26 -26 c-14 -14 -26 -35 -26 -47 0 -12 -9 -24 -24 -30 -18 -7
-23 -14 -19 -30 3 -11 0 -27 -7 -35 -10 -12 -10 -18 1 -32 12 -14 12 -16 -1
-11 -8 2 -18 20 -21 39 l-6 34 -2 -32 c-1 -31 -1 -31 -33 -20 -18 7 -42 22
-53 35 -11 12 -32 22 -45 22 -32 0 -15 14 37 28 33 10 43 18 47 40 9 45 9 86
1 105 -4 10 -3 29 4 43 6 14 11 27 11 29 0 3 -25 5 -55 5 -52 0 -55 -1 -55
-26 0 -42 -16 -62 -45 -57 -27 6 -36 43 -10 43 9 0 15 9 15 22 0 21 0 21 -15
2 -13 -17 -14 -17 -15 -1 0 15 -11 17 -95 17 -109 0 -111 -2 -74 -85 11 -25
18 -49 15 -52 -13 -13 -37 23 -52 78 l-17 59 -106 0 -106 0 30 -24 30 -24 -39
-10 c-48 -14 -76 -38 -76 -68 0 -13 -6 -27 -14 -31 -14 -8 -9 -50 15 -142 2
-8 -7 -20 -21 -27 -30 -15 -114 -2 -141 22 -16 14 -18 14 -24 -5 -7 -22 -105
-79 -105 -61 0 5 -18 19 -39 30 -48 24 -70 53 -78 103 -3 23 -11 37 -20 37
-11 0 -13 7 -9 24 4 18 -1 33 -20 55 -30 36 -12 44 24 11 25 -24 32 -25 32 -5
0 8 7 15 15 15 8 0 15 -6 15 -14 0 -8 7 -17 16 -20 22 -8 22 -8 27 12 3 9 3
-9 0 -40 -2 -32 -1 -58 4 -58 11 0 33 49 34 74 0 17 2 16 11 -6 5 -16 13 -28
18 -28 11 0 20 30 17 52 -4 24 -52 59 -71 52 -24 -9 -32 23 -11 46 9 10 23 16
31 13 8 -3 14 0 14 6 0 18 -107 14 -114 -4 -7 -19 -33 -19 -44 0 -7 13 -27 15
-112 13 -93 -3 -105 -5 -108 -22 -2 -10 2 -23 10 -27 21 -15 -21 -41 -54 -35
-26 5 -27 4 -21 -26 4 -22 3 -29 -5 -24 -7 4 -12 12 -12 18 0 6 -6 19 -14 27
-8 9 -18 30 -22 46 l-7 30 22 -19 c17 -16 27 -18 49 -10 15 5 28 17 30 27 3
15 -6 17 -67 17 l-71 0 26 -57z m1398 -26 c-3 -9 -10 -17 -14 -17 -12 0 -20
28 -13 46 5 13 8 14 20 2 7 -8 11 -22 7 -31z m431 14 c3 -5 1 -12 -5 -16 -5
-3 -10 1 -10 9 0 18 6 21 15 7z m-905 -41 c0 -5 -4 -10 -10 -10 -5 0 -10 5
-10 10 0 6 5 10 10 10 6 0 10 -4 10 -10z m217 -62 c-3 -8 -6 -5 -6 6 -1 11 2
17 5 13 3 -3 4 -12 1 -19z m-117 -53 c13 -14 29 -25 36 -25 16 0 69 -68 60
-77 -4 -4 -26 -6 -49 -5 -40 2 -43 1 -63 -40 -21 -43 -44 -61 -44 -36 0 8 -16
46 -35 85 -38 78 -42 93 -22 93 20 0 37 -21 37 -45 0 -21 17 -42 49 -60 9 -5
12 -3 9 6 -3 8 -9 14 -14 14 -17 0 -34 16 -34 32 0 13 2 13 17 2 15 -13 16
-10 11 34 -6 54 6 61 42 22z m1013 -60 c4 -8 2 -17 -3 -20 -6 -4 -10 3 -10 14
0 25 6 27 13 6z m-637 -16 c3 -6 2 -15 -4 -21 -7 -7 -14 -3 -21 11 -10 17 -9
21 3 21 8 0 18 -5 22 -11z m-475 -51 c33 -55 43 -124 21 -133 -17 -6 -34 13
-28 32 3 6 -1 13 -8 16 -11 5 -36 89 -36 124 0 26 24 8 51 -39z m713 16 c4 -9
4 -19 2 -21 -8 -8 -26 8 -26 23 0 19 16 18 24 -2z m-789 -26 c4 -18 9 -41 11
-50 4 -12 0 -18 -13 -19 -15 0 -14 -2 5 -9 22 -9 31 -30 12 -30 -5 0 -10 5
-10 10 0 6 -10 8 -24 4 -17 -4 -25 -1 -30 13 -4 10 -2 19 3 21 6 2 11 21 11
41 0 59 24 72 35 19z m459 6 c9 -24 4 -25 -23 -3 -22 18 -22 19 -3 19 11 0 23
-7 26 -16z m371 -81 c0 -18 -6 -29 -17 -31 -21 -4 -21 -2 -8 32 13 34 26 33
25 -1z m55 -14 c0 -18 -18 -9 -23 12 -4 16 -3 18 9 8 8 -6 14 -15 14 -20z
m-1533 -91 c-3 -8 -6 -5 -6 6 -1 11 2 17 5 13 3 -3 4 -12 1 -19z m1502 -16
c16 -9 45 -37 65 -61 37 -44 45 -88 27 -151 -6 -19 -9 -11 -15 40 -9 74 -30
115 -84 159 -41 34 -38 40 7 13z m-369 5 c0 -19 -51 -93 -66 -95 -10 -2 -26
-6 -34 -9 -51 -20 -72 8 -22 30 34 15 43 27 38 50 -5 20 5 22 22 5 10 -9 16
-8 29 5 16 15 33 23 33 14z m752 -29 c-2 -10 1 -18 7 -18 6 0 11 -7 11 -15 0
-7 8 -19 18 -25 16 -10 15 -10 -3 -8 -24 3 -125 -43 -125 -57 0 -5 -26 -25
-56 -44 -30 -18 -58 -40 -61 -48 -3 -8 9 -32 26 -53 17 -21 31 -43 31 -49 0
-18 -37 -31 -88 -31 -41 0 -51 3 -55 20 -6 23 -27 27 -27 5 0 -8 -9 -19 -19
-25 -23 -12 -61 -13 -61 -2 0 4 32 34 71 67 83 69 105 91 127 123 8 13 33 32
56 44 52 26 116 76 116 91 0 6 -8 19 -17 29 -16 18 -16 19 19 16 28 -1 34 -5
30 -20z m-682 -53 c0 -6 -11 -27 -25 -48 -26 -37 -26 -37 -50 -20 -32 23 -31
31 7 82 l31 43 18 -23 c10 -13 19 -29 19 -34z m284 -5 c14 -17 28 -46 31 -65
3 -19 7 -50 10 -69 6 -35 -3 -50 -22 -38 -12 8 -56 81 -79 130 -30 68 13 98
60 42z m552 5 c-3 -9 -11 -13 -16 -10 -8 5 -7 11 1 21 14 18 24 11 15 -11z
m-757 -33 c18 -50 10 -71 -33 -85 -21 -7 -32 -6 -43 6 -14 13 -14 21 -3 49 34
92 53 100 79 30z m-1082 -14 c-3 -8 -6 -5 -6 6 -1 11 2 17 5 13 3 -3 4 -12 1
-19z m1885 -18 c-5 -45 -8 -48 -32 -22 -32 34 -22 64 20 59 11 -2 14 -12 12
-37z m-142 -40 c4 0 8 -16 8 -36 l0 -35 -29 53 c-33 61 -39 99 -8 51 12 -18
25 -33 29 -33z m-1680 21 c0 -22 -16 -36 -24 -22 -8 12 3 41 15 41 5 0 9 -9 9
-19z m550 -43 c0 -20 -5 -23 -47 -33 -24 -5 -33 -3 -33 7 1 20 38 60 50 53 5
-3 10 0 10 7 0 20 20 -13 20 -34z m50 -23 c0 -11 7 -14 25 -9 20 5 26 1 35
-21 12 -32 -1 -55 -31 -55 -10 0 -23 -9 -29 -20 -6 -11 -17 -20 -24 -20 -7 0
-21 -18 -31 -39 -28 -64 -95 -61 -95 4 0 29 51 99 89 121 16 10 32 26 34 36 6
22 27 24 27 3z m159 -11 c3 -16 1 -17 -13 -5 -19 16 -21 34 -3 29 6 -3 14 -13
16 -24z m396 -39 c38 -54 44 -69 34 -81 -6 -8 -19 -12 -28 -9 -9 2 -43 7 -76
9 -77 6 -112 19 -120 47 -8 25 15 49 47 49 10 0 18 3 18 8 0 9 51 41 67 42 6
0 32 -29 58 -65z m-289 4 c3 -6 1 -16 -5 -22 -9 -9 -14 -8 -21 3 -9 15 -4 30
10 30 5 0 12 -5 16 -11z m-712 -24 c-4 -9 3 -16 19 -20 14 -4 28 -16 31 -28 7
-27 0 -33 -19 -17 -9 8 -27 10 -47 6 -26 -5 -30 -4 -20 6 7 7 12 24 12 38 0
15 3 30 6 33 11 11 24 -3 18 -18z m-493 -22 c-4 -15 -12 -28 -19 -31 -15 -5
-15 8 -2 43 13 34 31 24 21 -12z m269 -18 c-14 -17 -30 -11 -30 10 0 9 6 12
15 9 11 -4 15 1 16 17 l2 24 4 -23 c3 -13 -1 -30 -7 -37z m-368 13 c-7 -7 -12
-8 -12 -2 0 14 12 26 19 19 2 -3 -1 -11 -7 -17z m2452 -10 c3 -13 6 -27 6 -33
-1 -15 -30 27 -30 42 0 22 17 15 24 -9z m-127 0 c6 -7 13 -43 17 -80 5 -55 3
-73 -10 -93 l-17 -26 -20 53 c-11 29 -22 77 -25 106 -4 50 -3 52 21 52 13 0
29 -6 34 -12z m-1832 -19 c-4 -10 4 -23 20 -33 14 -9 23 -22 19 -28 -4 -6 0
-16 8 -22 24 -17 5 -56 -27 -56 -27 0 -32 -9 -14 -27 16 -16 7 -67 -13 -71
-22 -4 -24 21 -2 42 14 15 14 16 0 16 -9 0 -16 8 -16 19 0 23 -28 35 -46 20
-8 -6 -14 -8 -15 -3 -8 96 8 161 36 150 9 -3 13 -2 10 4 -4 6 5 9 19 8 19 -2
25 -7 21 -19z m723 -11 c7 -7 12 -17 12 -22 0 -18 -84 -104 -107 -111 -13 -3
-22 -11 -20 -18 1 -6 -8 -13 -20 -15 -16 -2 -23 -10 -23 -24 0 -24 -27 -58
-45 -58 -15 0 -25 45 -25 111 0 58 22 67 39 17 14 -40 26 -28 26 24 0 30 5 43
20 52 11 6 33 21 50 33 33 25 74 30 93 11z m926 -28 c17 -42 25 -47 44 -28 8
8 14 5 22 -17 6 -15 13 -32 16 -36 9 -15 -14 -10 -30 6 -23 23 -26 19 -26 -32
l-1 -48 -44 50 c-40 45 -44 55 -43 98 1 42 3 47 23 47 17 0 27 -10 39 -40z
m-629 -30 c-6 -10 -40 -7 -75 8 l-25 10 25 10 c27 10 86 -11 75 -28z m945 30
c0 -5 -5 -10 -11 -10 -5 0 -7 5 -4 10 3 6 8 10 11 10 2 0 4 -4 4 -10z m-1110
-36 c0 -8 8 -14 18 -14 16 -1 16 -1 0 -10 -17 -11 -47 -4 -49 11 -1 5 -2 15
-3 22 -1 6 0 16 2 20 5 11 32 -13 32 -29z m550 23 c14 0 34 3 46 6 33 11 58
-23 50 -68 -8 -39 -9 -40 -35 -23 -16 10 -25 7 -55 -16 l-36 -27 -30 21 c-39
28 -65 87 -48 107 8 11 22 13 47 7 20 -4 47 -7 61 -7z m-616 -29 c-8 -28 -3
-24 -36 -32 -35 -8 -38 14 -5 37 33 24 50 21 41 -5z m1126 18 c0 -3 -4 -8 -10
-11 -5 -3 -10 -1 -10 4 0 6 5 11 10 11 6 0 10 -2 10 -4z m-870 -36 c0 -5 -5
-10 -11 -10 -5 0 -7 5 -4 10 3 6 8 10 11 10 2 0 4 -4 4 -10z m-30 -19 c0 -6 8
-10 18 -10 27 0 68 -7 80 -15 8 -5 12 0 12 13 0 12 5 21 10 21 6 0 10 -4 10
-10 0 -5 7 -10 15 -10 8 0 15 5 15 10 0 6 5 10 10 10 6 0 10 -12 10 -26 0 -21
3 -24 13 -15 8 6 17 8 20 4 13 -12 7 -21 -20 -28 -16 -3 -37 -15 -48 -25 -11
-10 -32 -23 -47 -29 -24 -9 -30 -6 -67 34 -23 25 -41 42 -41 40 0 -3 -11 2
-25 11 -14 9 -22 20 -19 25 7 12 54 12 54 0z m550 -7 c0 -8 15 -29 33 -47 18
-17 39 -44 46 -59 8 -15 17 -25 21 -23 14 9 20 -25 8 -50 -9 -19 -16 -23 -35
-19 -18 5 -32 0 -51 -19 -39 -37 -72 -43 -104 -18 -14 12 -36 21 -49 21 -27 0
-59 -27 -59 -49 -1 -27 -33 -60 -66 -67 -37 -7 -44 5 -50 79 -3 45 1 52 29 48
4 0 7 3 7 9 0 13 66 40 100 40 23 0 27 4 23 23 -3 15 5 31 26 51 23 22 31 25
31 14 0 -26 32 -31 54 -8 l20 20 -21 15 c-28 20 -20 53 13 53 14 0 24 -6 24
-14z m-794 -41 c-7 -7 -26 7 -26 19 0 6 6 6 15 -2 9 -7 13 -15 11 -17z m241
-26 c-5 -17 -37 -21 -37 -5 0 8 9 14 21 15 12 1 19 -3 16 -10z m733 -12 c0
-14 -4 -25 -10 -25 -11 0 -14 33 -3 43 11 11 13 8 13 -18z m-510 -90 c0 -8 -4
-15 -10 -15 -5 0 -10 7 -10 15 0 8 5 15 10 15 6 0 10 -7 10 -15z m-130 -152
c0 -7 9 -18 20 -25 26 -17 25 -22 -5 -36 -38 -18 -48 -15 -41 12 7 30 -20 86
-42 87 -11 0 -12 2 -4 6 7 2 12 23 13 46 l0 42 30 -59 c16 -33 29 -65 29 -73z
m10 107 c0 -5 -4 -10 -10 -10 -5 0 -10 5 -10 10 0 6 5 10 10 10 6 0 10 -4 10
-10z m638 -30 c11 -18 10 -20 -12 -20 -19 0 -23 4 -19 20 3 11 8 20 12 20 3 0
12 -9 19 -20z m-528 -22 c0 -16 -3 -18 -13 -10 -9 8 -24 8 -50 1 -37 -10 -57
-6 -57 11 0 9 100 29 113 23 4 -2 7 -13 7 -25z m-220 -35 c0 -19 -12 -43 -21
-43 -5 0 -9 7 -9 16 0 9 -8 23 -17 30 -16 12 -14 13 14 11 18 -1 33 -7 33 -14z
m766 -24 c3 -6 -1 -18 -10 -27 -13 -13 -40 -17 -124 -19 l-107 -3 33 21 c26
17 35 19 48 9 12 -11 19 -10 39 0 14 7 25 17 25 22 0 12 88 10 96 -3z m-1944
-35 c-3 -18 -7 -22 -13 -13 -4 7 -3 19 3 26 15 18 16 17 10 -13z m1208 -3 c0
-19 -22 -23 -38 -7 -15 15 -14 16 11 16 15 0 27 -4 27 -9z m-150 -31 c-8 -5
-26 -9 -40 -9 -23 0 -23 1 -5 9 11 5 29 9 40 9 17 1 17 -1 5 -9z m840 -20 c42
0 46 -2 58 -32 9 -26 9 -35 -1 -45 -9 -10 -19 -8 -46 9 -22 14 -47 21 -69 19
-30 -2 -33 -1 -27 18 5 17 2 21 -18 21 -14 0 -30 -6 -36 -13 -13 -16 -122 -11
-133 7 -10 14 85 25 167 19 33 -2 80 -4 105 -3z m178 -28 l24 -18 -36 -32
c-20 -18 -41 -32 -46 -32 -12 0 -25 52 -21 88 2 18 53 14 79 -6z m-1338 -48
c53 -4 76 -13 53 -21 -7 -3 -13 -10 -13 -17 0 -17 -62 -8 -73 10 -4 8 -21 14
-37 14 -33 0 -39 14 -13 29 12 6 20 6 24 -1 4 -5 30 -12 59 -14z m165 7 l30
-7 -28 -7 c-25 -7 -107 7 -107 18 0 7 69 4 105 -4z m997 -8 c21 -9 38 -23 38
-30 0 -16 -5 -16 -50 -2 -19 6 -57 14 -84 17 -27 4 -51 13 -54 20 -6 19 103
15 150 -5z m-882 -19 c0 -3 -12 -25 -26 -50 -16 -28 -33 -44 -45 -44 -10 0
-19 -4 -19 -10 0 -5 -9 -10 -20 -10 -11 0 -20 4 -20 8 0 5 -17 16 -37 25 -27
12 -38 23 -39 39 -2 22 2 24 68 26 38 1 77 6 86 12 19 10 52 13 52 4z m-835
-53 c4 -31 2 -42 -7 -38 -7 2 -12 15 -12 28 3 56 4 62 9 58 2 -3 7 -24 10 -48z
m425 28 c0 -5 5 -7 10 -4 6 3 10 -3 10 -14 0 -29 -14 -26 -28 4 -7 15 -8 25
-2 25 6 0 10 -5 10 -11z m98 -41 c26 -55 35 -111 15 -103 -8 3 -17 5 -19 5 -2
0 -4 10 -4 23 0 12 -9 28 -20 35 -14 8 -20 23 -20 47 0 48 22 45 48 -7z m972
20 l9 -23 0 23 c1 15 7 22 20 22 26 0 83 -20 102 -36 8 -8 25 -14 36 -14 25 0
33 -8 26 -26 -7 -19 -72 -18 -97 1 -12 9 -42 15 -71 15 -46 0 -53 3 -63 25
-16 34 -15 35 8 35 12 0 24 -10 30 -22z m-346 -37 c20 -17 21 -31 2 -31 -8 0
-18 9 -21 20 -3 11 -13 20 -21 20 -17 0 -18 12 -2 28 10 10 14 9 19 -6 4 -10
14 -24 23 -31z m756 31 c0 -26 -11 -34 -27 -21 -20 17 -16 39 7 39 13 0 20 -7
20 -18z m-599 -12 c13 -7 19 -7 19 0 0 5 7 10 15 10 14 0 19 -10 13 -26 -4 -9
-78 -12 -78 -4 0 4 -15 12 -32 18 l-33 10 38 1 c21 1 47 -4 58 -9z m-705 -37
c-7 -7 -26 7 -26 19 0 6 6 6 15 -2 9 -7 13 -15 11 -17z m-556 -18 c0 -14 -4
-25 -10 -25 -5 0 -10 11 -10 25 0 14 5 25 10 25 6 0 10 -11 10 -25z m808 -14
c3 -8 0 -11 -5 -8 -5 3 -15 2 -22 -3 -11 -6 -9 -10 7 -19 13 -7 19 -17 16 -26
-7 -16 -39 -12 -82 9 -23 12 -23 12 15 38 41 28 64 31 71 9z m362 -10 c0 -5
13 -12 29 -16 16 -3 35 -13 42 -21 6 -8 17 -14 24 -14 7 0 19 -8 26 -17 12
-15 12 -16 -6 -9 -11 5 -29 11 -40 14 -11 3 -33 14 -50 24 -16 10 -38 18 -47
18 -10 0 -18 7 -18 15 0 8 9 15 20 15 11 0 20 -4 20 -9z m485 -1 c3 -5 1 -10
-4 -10 -6 0 -11 5 -11 10 0 6 2 10 4 10 3 0 8 -4 11 -10z m-1381 -15 c37 -18
67 -63 60 -91 -3 -11 5 -35 20 -56 33 -49 21 -56 -23 -13 -100 100 -104 101
-105 41 -1 -36 -25 -66 -27 -34 -3 39 4 95 13 106 7 8 7 16 -2 27 -27 33 11
45 64 20z m839 9 c11 -11 -3 -24 -18 -18 -8 4 -12 10 -9 15 6 11 18 12 27 3z
m-467 -94 c-6 -69 -6 -70 18 -70 38 0 41 -17 10 -62 l-29 -41 -12 62 c-7 34
-17 70 -23 81 -7 12 -7 21 0 25 5 3 10 22 10 41 0 25 4 34 16 34 15 0 16 -9
10 -70z m-79 -14 c27 -17 33 -28 42 -81 6 -34 11 -69 11 -78 0 -18 -16 -23
-22 -8 -1 5 -12 11 -23 13 -11 1 -31 18 -44 36 -13 17 -28 32 -32 32 -16 0
-78 75 -79 95 0 11 -4 27 -9 35 -6 8 -8 17 -5 21 5 9 109 -34 161 -65z m1113
-28 c-28 -23 -70 -24 -70 -2 0 9 19 35 43 58 l42 41 3 -40 c3 -31 -1 -43 -18
-57z m208 7 c-8 -5 -20 -19 -26 -30 -11 -19 -11 -19 -12 3 0 12 4 30 10 40 5
9 15 31 22 47 l12 30 4 -40 c2 -25 -1 -43 -10 -50z m-698 45 c0 -11 5 -20 10
-20 6 0 10 9 10 19 0 18 1 18 36 0 20 -10 45 -26 55 -35 11 -10 29 -22 42 -28
31 -16 35 -82 8 -157 -17 -44 -19 -63 -11 -84 14 -38 13 -88 -2 -83 -15 5 -48
70 -41 80 2 5 -10 25 -27 45 -17 21 -40 61 -50 88 -10 28 -25 68 -33 90 -24
67 -29 105 -12 105 8 0 15 -9 15 -20z m-800 -73 c0 -18 -2 -19 -10 -7 -13 20
-13 43 0 35 6 -3 10 -16 10 -28z m1286 -33 c-8 -20 18 -66 31 -53 7 7 12 1 15
-21 3 -17 1 -33 -4 -36 -5 -3 -6 -9 -3 -14 8 -13 -14 -93 -29 -105 -7 -5 -21
-22 -30 -37 -10 -16 -22 -28 -27 -28 -12 0 -68 -62 -69 -75 -1 -13 -57 -75
-69 -75 -5 0 -12 -8 -16 -17 -5 -15 -11 -12 -41 21 -36 41 -46 89 -19 100 16
6 19 48 6 81 -8 18 -10 16 -19 -15 l-10 -35 -1 30 c-1 17 6 41 15 54 11 16 14
34 10 60 -3 23 0 57 10 87 9 27 18 55 20 63 4 11 8 11 22 -3 10 -9 28 -16 39
-16 17 0 20 -6 18 -28 -1 -16 -5 -34 -9 -40 -13 -21 16 -13 36 10 16 19 22 20
38 10 11 -7 30 -12 43 -12 12 0 32 -7 44 -15 16 -11 24 -12 29 -3 4 7 -1 18
-14 26 -12 8 -22 22 -22 32 0 10 -7 23 -15 30 -18 15 -20 37 -2 43 18 6 29 -3
23 -19z m-898 -55 c3 -31 -1 -37 -20 -42 -35 -10 -54 43 -26 71 22 22 43 9 46
-29z m48 10 c8 -14 -11 -33 -25 -25 -11 7 -4 36 9 36 5 0 12 -5 16 -11z
m-1171 -19 c3 -5 2 -10 -4 -10 -5 0 -13 5 -16 10 -3 6 -2 10 4 10 5 0 13 -4
16 -10z m1243 2 c7 -5 12 -22 11 -38 -1 -16 1 -36 5 -45 6 -13 0 -18 -23 -21
-17 -2 -33 0 -35 6 -2 6 -5 3 -5 -6 -1 -19 -2 -20 -43 -22 -33 -2 -37 18 -8
36 21 13 27 38 10 38 -5 0 -10 7 -10 16 0 10 6 14 14 11 16 -6 40 16 29 26 -9
10 40 8 55 -1z m502 -34 c0 -18 -5 -40 -10 -48 -7 -11 -10 -2 -10 33 0 26 5
47 10 47 6 0 10 -15 10 -32z m-1007 3 c4 -1 7 -8 7 -17 0 -8 17 -33 38 -55 20
-22 42 -46 47 -52 15 -17 36 -68 42 -97 6 -36 23 -50 23 -19 0 13 11 38 24 54
l25 30 18 -25 c18 -25 19 -37 2 -32 -20 5 -49 -20 -49 -43 0 -71 48 -103 69
-45 14 40 43 42 31 1 -4 -15 -5 -41 -2 -56 l5 -28 -69 6 c-51 5 -74 3 -88 -8
-12 -9 -23 -11 -35 -4 -9 5 -28 13 -43 19 -20 7 -28 16 -28 34 0 13 4 26 10
28 5 2 6 8 2 15 -5 8 -21 9 -52 3 -49 -9 -78 5 -67 34 5 11 14 14 37 10 28 -6
30 -5 30 23 0 16 -8 56 -19 89 -10 32 -18 68 -18 79 0 11 -3 30 -7 42 -7 21
-5 23 26 19 18 -3 36 -5 41 -5z m-693 -17 c0 -19 -12 -24 -31 -13 -26 14 -24
24 6 24 14 0 25 -5 25 -11z m760 -28 c-1 -20 -2 -20 -15 4 -19 33 -19 46 0 30
8 -7 15 -22 15 -34z m130 24 c29 -29 14 -47 -16 -19 -13 12 -24 26 -24 31 0
14 19 9 40 -12z m-622 -7 c-2 -11 -14 -19 -31 -21 -33 -4 -36 11 -4 26 32 15
39 14 35 -5z m787 -13 c10 -11 15 -23 12 -27 -11 -10 -57 15 -57 32 0 21 24
19 45 -5z m-539 -20 c33 -13 54 -39 46 -58 -4 -13 -7 -13 -16 0 -6 9 -26 19
-44 22 -22 5 -32 13 -32 27 0 22 8 23 46 9z m354 -61 c0 -10 -4 -21 -10 -24
-5 -3 -10 -16 -10 -28 0 -36 -17 -6 -29 51 -16 76 -14 79 19 47 17 -16 30 -37
30 -46z m67 39 c-3 -8 -6 -5 -6 6 -1 11 2 17 5 13 3 -3 4 -12 1 -19z m146 -50
c21 -24 22 -38 3 -38 -8 0 -17 -7 -20 -16 -5 -13 -9 -13 -36 3 -46 27 -65 63
-61 111 1 17 86 -29 114 -60z m247 62 c0 -5 -11 -10 -25 -10 -14 0 -25 5 -25
10 0 6 11 10 25 10 14 0 25 -4 25 -10z m58 -24 c3 -12 -1 -17 -10 -14 -7 3
-15 13 -16 22 -3 12 1 17 10 14 7 -3 15 -13 16 -22z m-1588 -26 c0 -5 -4 -10
-10 -10 -5 0 -10 5 -10 10 0 6 5 10 10 10 6 0 10 -4 10 -10z m104 -28 c7 -11
-4 -52 -14 -52 -6 0 -30 44 -30 55 0 9 39 5 44 -3z m2226 -31 c0 -10 -7 -21
-15 -25 -11 -4 -14 1 -13 19 3 29 28 34 28 6z m-1115 -11 c3 -5 1 -10 -4 -10
-6 0 -11 5 -11 10 0 6 2 10 4 10 3 0 8 -4 11 -10z m170 -40 c-2 -24 -35 -43
-35 -21 0 6 5 11 10 11 6 0 10 15 10 33 1 22 3 28 9 17 5 -8 8 -26 6 -40z
m-160 10 c3 -5 1 -10 -4 -10 -6 0 -11 5 -11 10 0 6 2 10 4 10 3 0 8 -4 11 -10z
m1001 -66 c-19 -19 -20 -8 -4 37 l13 34 3 -28 c2 -15 -4 -34 -12 -43z m-2286
25 c31 -43 18 -47 -14 -4 -15 19 -23 35 -17 35 5 0 19 -14 31 -31z m60 6 c10
-12 10 -15 -3 -15 -8 0 -17 7 -21 15 -3 8 -2 15 3 15 5 0 14 -7 21 -15z m2290
0 c0 -8 -4 -15 -10 -15 -5 0 -10 7 -10 15 0 8 5 15 10 15 6 0 10 -7 10 -15z
m-70 -147 c0 -17 -4 -27 -10 -23 -5 3 -10 0 -10 -8 0 -8 -7 -21 -16 -28 -11
-9 -14 -23 -11 -46 5 -25 2 -33 -13 -38 -28 -9 -60 12 -60 38 0 14 11 29 29
40 17 10 33 26 36 37 4 11 15 20 26 20 26 0 24 18 -3 22 -12 2 -23 8 -25 14
-2 7 8 9 27 6 26 -4 30 -9 30 -34z m-182 13 c3 -8 0 -11 -7 -7 -6 4 -11 2 -11
-3 0 -6 -4 -11 -10 -11 -5 0 -10 9 -10 21 0 23 30 23 38 0z m-680 -11 c28 -27
28 -30 -5 -30 -42 0 -60 15 -44 34 17 21 23 20 49 -4z m719 -37 c-9 -9 -20
-14 -24 -10 -3 4 2 14 13 21 25 19 33 10 11 -11z m-993 -28 c-4 -15 -2 -25 5
-25 6 0 11 -9 11 -20 0 -17 -7 -20 -40 -20 -46 0 -80 24 -73 51 6 20 18 25 27
10 3 -5 17 -11 31 -14 20 -3 25 -1 21 10 -7 17 1 33 15 33 5 0 7 -11 3 -25z
m-318 -20 c8 -20 -4 -51 -15 -39 -5 5 -12 19 -16 32 -5 16 -2 22 10 22 8 0 18
-7 21 -15z m1641 -66 c1 -14 -3 -19 -15 -17 -24 5 -28 38 -5 38 12 0 19 -8 20
-21z"/>
<path d="M1490 1840 c-9 -6 -10 -10 -3 -10 6 0 15 5 18 10 8 12 4 12 -15 0z"/>
<path d="M2170 1434 c0 -8 5 -12 10 -9 6 4 8 11 5 16 -9 14 -15 11 -15 -7z"/>
<path d="M1930 1341 c0 -13 26 -32 33 -24 14 13 6 33 -13 33 -11 0 -20 -4 -20
-9z"/>
<path d="M2120 2550 c0 -13 41 -50 56 -50 7 0 16 5 19 10 3 6 17 10 31 10 17
0 24 5 24 20 0 18 -7 20 -65 20 -36 0 -65 -4 -65 -10z"/>
<path d="M2417 2553 c-4 -3 -7 -19 -7 -35 0 -36 -27 -91 -41 -82 -5 3 -9 13
-7 22 3 24 -24 62 -45 62 -10 0 -21 8 -24 17 -14 35 -22 -39 -13 -116 5 -42 8
-138 8 -214 0 -76 2 -140 5 -143 4 -5 118 67 224 141 l42 30 1 163 0 162 -68
0 c-38 0 -72 -3 -75 -7z"/>
<path d="M1940 2460 c0 -5 9 -10 21 -10 11 0 17 5 14 10 -3 6 -13 10 -21 10
-8 0 -14 -4 -14 -10z"/>
<path d="M2012 2455 c-25 -18 -40 -65 -34 -107 6 -42 22 -34 22 11 0 31 6 44
30 64 47 40 32 67 -18 32z"/>
<path d="M637 2424 c-4 -4 -5 -10 -2 -14 6 -9 65 0 65 11 0 10 -53 12 -63 3z"/>
<path d="M100 2344 c0 -8 5 -12 10 -9 6 4 8 11 5 16 -9 14 -15 11 -15 -7z"/>
<path d="M217 2354 c-8 -8 1 -24 14 -24 5 0 9 7 9 15 0 15 -12 20 -23 9z"/>
<path d="M118 2323 c-10 -2 -18 -8 -19 -11 -11 -100 -10 -105 23 -79 15 11 31
99 18 96 -3 -1 -13 -3 -22 -6z"/>
<path d="M160 2316 c0 -8 4 -17 9 -20 11 -7 33 18 24 27 -12 12 -33 7 -33 -7z"/>
<path d="M2031 2314 c0 -11 3 -14 6 -6 3 7 2 16 -1 19 -3 4 -6 -2 -5 -13z"/>
<path d="M195 2269 c6 -19 4 -21 -14 -16 -11 3 -21 1 -21 -4 0 -5 5 -9 10 -9
6 0 10 -11 10 -25 0 -28 15 -33 24 -9 4 9 13 14 21 10 22 -8 19 37 -3 57 -25
23 -35 21 -27 -4z"/>
<path d="M93 2193 c-9 -3 -13 -25 -12 -61 0 -31 3 -50 6 -42 3 8 13 21 21 28
9 7 17 28 19 47 2 34 -5 40 -34 28z"/>
<path d="M140 2110 c0 -19 11 -26 23 -14 8 8 -3 34 -14 34 -5 0 -9 -9 -9 -20z"/>
<path d="M350 1358 c0 -4 -7 -8 -15 -8 -15 0 -16 -24 -2 -48 7 -9 12 -9 23 3
9 8 19 13 24 10 4 -3 10 9 12 25 4 26 2 29 -19 28 -13 -1 -23 -6 -23 -10z"/>
<path d="M1476 1356 c7 -19 48 -22 42 -3 -3 6 -14 13 -26 15 -16 3 -20 -1 -16
-12z"/>
<path d="M60 1334 c0 -22 19 -25 38 -6 18 18 18 19 -10 19 -16 0 -28 -6 -28
-13z"/>
<path d="M1095 1291 c-3 -2 -5 -10 -5 -18 0 -20 28 -16 40 6 8 17 7 20 -10 18
-12 -1 -23 -3 -25 -6z"/>
<path d="M1025 1263 c-15 -10 -16 -16 -7 -25 16 -16 15 -28 -3 -28 -8 0 -15 5
-15 10 0 6 -4 10 -10 10 -5 0 -10 -7 -10 -16 0 -8 -4 -13 -9 -9 -5 3 -12 1
-16 -5 -11 -18 44 -23 79 -6 42 20 51 41 27 65 -15 15 -21 16 -36 4z"/>
<path d="M510 1133 c0 -17 19 -35 29 -29 18 12 12 36 -9 36 -11 0 -20 -3 -20
-7z"/>
<path d="M620 1102 c0 -10 6 -24 12 -30 10 -10 10 -14 1 -20 -9 -6 -9 -15 3
-37 8 -16 21 -33 27 -37 17 -11 65 -10 71 1 6 9 -21 47 -61 84 -13 11 -23 29
-23 39 0 10 -7 18 -15 18 -8 0 -15 -8 -15 -18z"/>
<path d="M563 1103 c-15 -5 -18 -33 -4 -33 5 0 17 -3 26 -6 13 -5 16 -2 13 16
-3 25 -14 32 -35 23z"/>
<path d="M6 1002 c-11 -18 -3 -107 11 -123 12 -15 17 -15 52 3 21 10 47 28 56
39 26 28 96 26 114 -3 10 -16 10 -23 2 -26 -26 -9 -8 -19 29 -17 22 1 40 -1
40 -4 0 -11 -51 -30 -66 -24 -14 5 -14 2 -1 -28 7 -19 12 -40 10 -46 -3 -7 0
-13 6 -13 6 0 11 5 11 10 0 6 8 10 18 10 11 0 24 10 30 23 9 19 11 19 11 3 1
-11 6 -16 15 -13 8 3 17 -2 20 -11 4 -9 13 -28 21 -42 13 -22 15 -22 21 -6 4
11 -2 33 -15 56 -11 21 -21 52 -21 70 0 26 -3 30 -13 21 -19 -15 -27 -4 -27
36 0 23 -5 33 -15 33 -8 0 -15 5 -15 11 0 5 -4 8 -8 5 -5 -3 -26 -1 -47 5 -53
15 -126 3 -132 -22 -3 -10 -13 -19 -23 -19 -10 0 -20 -5 -22 -12 -8 -23 -27 3
-22 30 4 20 0 33 -14 45 -11 10 -23 14 -26 9z"/>
<path d="M40 75 c0 -12 -6 -16 -20 -12 -17 4 -20 0 -20 -29 l0 -34 78 1 c42 1
67 4 55 6 -13 2 -23 9 -23 14 0 6 4 8 9 5 5 -3 11 6 14 19 5 29 -10 45 -19 21
-3 -9 -10 -14 -14 -11 -5 3 -11 1 -15 -5 -3 -5 -1 -10 4 -10 6 0 11 -5 11 -11
0 -8 -4 -8 -15 1 -8 6 -13 21 -12 33 1 13 -5 23 -15 25 -12 2 -18 -3 -18 -13z"/>
<path d="M350 39 c12 -41 12 -41 49 -37 l31 3 -31 33 c-40 43 -61 43 -49 1z"/>
</g>
</svg>
